<mxfile host="app.diagrams.net" modified="2024-09-24T00:24:38.822Z" agent="Mozilla/5.0 (Windows NT 10.0; Win64; x64) AppleWebKit/537.36 (KHTML, like Gecko) Chrome/129.0.0.0 Safari/537.36" version="24.4.8" etag="nDK6mCFcQfV4aiKdUtxk" type="github">
  <diagram name="Page-1" id="1V--JhU5KTovmDopu11t">
    <mxGraphModel>
      <root>
        <mxCell id="0" />
        <mxCell id="1" parent="0" />
      </root>
    </mxGraphModel>
  </diagram>
</mxfile>
